<?xml version="1.0" encoding="UTF-8" standalone="no"?>
<svg
   xmlns:dc="http://purl.org/dc/elements/1.1/"
   xmlns:cc="http://creativecommons.org/ns#"
   xmlns:rdf="http://www.w3.org/1999/02/22-rdf-syntax-ns#"
   xmlns:svg="http://www.w3.org/2000/svg"
   xmlns="http://www.w3.org/2000/svg"
   xmlns:sodipodi="http://sodipodi.sourceforge.net/DTD/sodipodi-0.dtd"
   xmlns:inkscape="http://www.inkscape.org/namespaces/inkscape"
   sodipodi:docname="WT_wiki_logo_3.svg"
   id="svg22"
   version="1.1"
   fill="none"
   viewBox="0 0 120 50"
   height="50"
   width="120"
   inkscape:version="1.0 (4035a4fb49, 2020-05-01)">
  <metadata
     id="metadata28">
    <rdf:RDF>
      <cc:Work
         rdf:about="">
        <dc:format>image/svg+xml</dc:format>
        <dc:type
           rdf:resource="http://purl.org/dc/dcmitype/StillImage" />
        <dc:title></dc:title>
      </cc:Work>
    </rdf:RDF>
  </metadata>
  <defs
     id="defs26" />
  <sodipodi:namedview
     pagecolor="#ffffff"
     bordercolor="#666666"
     borderopacity="1"
     objecttolerance="10"
     gridtolerance="10"
     guidetolerance="10"
     inkscape:pageopacity="0"
     inkscape:pageshadow="2"
     inkscape:window-width="1920"
     inkscape:window-height="1017"
     id="namedview24"
     showgrid="false"
     inkscape:zoom="5.0705449"
     inkscape:cx="32.91369"
     inkscape:cy="8.0390578"
     inkscape:window-x="-8"
     inkscape:window-y="-8"
     inkscape:window-maximized="1"
     inkscape:current-layer="svg22"
     inkscape:document-rotation="0" />
  <path
     fill-rule="evenodd"
     clip-rule="evenodd"
     d="m 71.985735,31.334203 v -13.3333 l -6.4444,2e-6 v 14.528398 c 1.2403,0.047 2.4148,0.1023 3.3601,0.1714 1.2052,0.0879 1.4554,0.1498 1.3224,1.5021 -0.113,1.1601 -0.3168,1.2009 -0.7131,1.2803 -0.0414,0.0083 -0.085,0.0171 -0.1308,0.0275 -0.8476,0.194 -2.2654,0.4857 -3.8386,0.8067 v 13.6836 l 1.696,-1e-4 0.0095,-0.0096 h 0.644 v -0.895 h -1.4193 l 2.825,-7.8045 h 1.0872 v -0.5936 c 0.7533,-0.1743 1.5228,-0.268 2.2957,-0.2794 0.7877,0.0149 1.572,0.1085 2.3414,0.2794 v 0.5936 h 3.8965 l 0.5586,1.5663 h 1.3438 c 0.1107,0.1925 0.2091,0.3919 0.2948,0.597 l 1.8712,-0.4541 0.2576,0.2057 0.4727,-0.1126 -4.3969,-8.982 7.5555,-16.111098 -6.5307,-2e-6 -6.136,13.3333 z m -13.5555,-7.99996 v 8.95946 c -0.6709,-0.0303 -1.1552,-0.0628 -1.3604,-0.1006 -0.6412,-0.118 -0.726,-0.2644 -0.7606,-0.728 -0.0095,-0.1278 -0.03,-0.5332 -0.0569,-1.0673 -0.0707,-1.4023 -0.1861,-3.69189 -0.2666,-4.17468 -0.1111,-0.66667 -0.4444,-1.55556 -0.8889,-1.55556 -0.4444,0 -0.7777,0.88889 -0.8888,1.55556 -0.0827,0.49612 -0.2213,2.90008 -0.3013,4.28868 -0.0275,0.4773 -0.0481,0.8347 -0.0571,0.9533 -0.0354,0.4639 -0.1196,0.61 -0.7604,0.728 -0.2018,0.0371 -0.6729,0.0691 -1.3257,0.099 v -8.95786 c 0,-2 -4.4444,-4.444449 -4.4444,-4.444449 v -0.88817 h 15.5555 v 0.88817 c 0,0 -4.4444,2.444449 -4.4444,4.444449 z m -1.1071,14.79466 c 0.1507,-0.0687 0.5452,-0.1766 1.1071,-0.3109 v 6.1829 c 0,3.1111 4.4444,5.1111 4.4444,5.1111 v 0.8889 h -2.8867 c 0.0468,-0.0887 0.043,-0.1659 0.042,-0.1868 l -2e-4,-0.0044 v -0.6325 c 0,-0.6665 -0.2708,-0.765 -0.9067,-0.996 -0.0918,-0.0334 -0.1913,-0.0695 -0.2986,-0.1106 l -0.0222,-0.0053 c -1.4439,-0.3452 -2.5954,-0.6205 -2.8165,-0.7311 -0.2222,-0.1111 -0.2381,-0.2337 -0.2222,-0.4444 0.0457,-0.6062 0.1476,-2.0834 0.2514,-3.5875 v -9e-4 -2e-4 c 0.1343,-1.9466 0.2717,-3.9378 0.2943,-4.1443 0.0584,-0.5325 0.3818,-0.7402 1.0139,-1.028 z m -7.1947,11.6852 c -0.001,0.0209 -0.0048,0.0981 0.042,0.1868 h -2.8513 v -0.8889 c 0,0 4.4444,-2 4.4444,-5.1111 v -6.1744 c 0.5432,0.1303 0.9244,0.2351 1.072,0.3024 0.6323,0.2885 0.9557,0.4955 1.0141,1.028 0.026,0.2375 0.2144,2.8361 0.3722,5.0121 v 4e-4 c 0.0854,1.1779 0.1618,2.2319 0.1987,2.7204 0.0158,0.2107 0.0097,0.3333 -0.2125,0.4444 -0.0921,0.0461 -0.4281,0.1207 -0.8618,0.2171 -0.6127,0.1362 -1.4207,0.3157 -2.0123,0.5193 -0.1073,0.041 -0.2067,0.0772 -0.2985,0.1105 -0.6361,0.2311 -0.9068,0.3295 -0.9068,0.9961 v 0.6325 z m -8.8711,-17.1134 c 0.6125,-0.0448 1.3211,-0.0838 2.0814,-0.1185 l 2.0717,-14.580579 h -5.4471 l -2.597,20.014779 -1.6772,-9.4739 h -1.8248 v 4.277 c 0.7418,0.1527 1.4475,0.4481 2.0785,0.87 v 1.8939 h -0.4707 v 3.5696 h 1.2047 v -4e-4 l 0.5941,2.15 h 2.5997 l 1.4038,3.1118 c -0.5116,-0.0879 -1.0167,-0.211 -1.5117,-0.3684 -0.9151,-0.3078 -2.3496,-1.0157 -3.6734,-1.6689 -1.4042,-0.693 -2.6839,-1.3245 -3.0867,-1.3517 -0.2066,-0.0138 -0.2937,-0.0239 -0.3265,-0.0304 -0.0328,0.0065 -0.1199,0.0166 -0.3265,0.0304 -0.3821,0.0256 -1.3941,0.5949 -2.5493,1.2447 -1.2111,0.6813 -2.5797,1.4512 -3.5449,1.7759 -0.4946,0.1573 -0.9993,0.2804 -1.5106,0.3682 l 0.4528,-1.0033 -4.7279,-2.9413 0.3582,-0.6295 4.7924,2.634 0.5152,-1.1418 -3.4198,-2.1274 0.3584,-0.6295 4.962,2.7272 h 0.0478 l 0.3353,-1.2116 -3.4578,-2.1511 0.3584,-0.6296 3.3577,1.8455 0.0011,-0.0036 h 1.2064 v -3.5692 h -0.4742 v -1.8931 c 0.6322,-0.4227 1.3393,-0.7186 2.0826,-0.8713 v -4.2756 h -2.053 l -2.0544,-0.75077 h 3.63 v -0.85224 c 0.3908,-0.34599 0.8755,-0.56607 1.3916,-0.63189 v -5.65966 h -4.8104 l -3.117,17.59616 -2.555,-20.242979 h -5.4468 l 4.5014,31.999279 h 2.8425 c -0.1367,-0.3509 -0.289,-0.6863 -0.4572,-0.9801 -0.7002,-1.1591 -1.5029,-2.2521 -2.3982,-3.2656 0,0 3.5351,-0.1853 5.3677,-0.7938 0.9537,-0.3168 2.306,-1.0678 3.5024,-1.7323 1.1409,-0.6336 2.1402,-1.1885 2.5174,-1.2135 h -5e-4 c 0.7736,-0.0511 0.6444,0 0.6444,0 l -0.0063,7.9853 h 7.8717 l 1.9956,-14.0444 c -0.8417,-0.1744 -1.5661,-0.3282 -2.0805,-0.4459 -0.0457,-0.0104 -0.0892,-0.0191 -0.1306,-0.0274 -0.3964,-0.0795 -0.5994,-0.1201 -0.7132,-1.2804 -0.133,-1.3523 0.1173,-1.4142 1.3223,-1.5021 z m -6.9181,-4.90901 h 1.217 l -1.2646,-7.14325 h -1.3393 v 5.65966 c 0.5143,0.06641 0.9972,0.28606 1.3869,0.63081 z m 52.7576,22.20851 -3.2224,1e-4 -0.009,-0.0091 h -3.5215 v -0.895 h 1.3319 l -0.6858,-1.9956 c 0.138,-0.2752 0.254,-0.5611 0.347,-0.8549 l 2.3154,-0.6892 0.1111,-0.3334 0.8703,-0.2543 z m 28.660905,-16.9729 -1.85,-3.9932 -1.852,3.9935 -4.318,0.5504 3.175,3.019 -0.818,4.3333 3.813,-2.1281 3.813,2.1285 -0.819,-4.3337 3.175,-3.0193 z m -109.5115353,-3.9932 1.85067,3.9932 4.3186603,0.5504 -3.1746803,3.0193 0.8181903,4.3337 -3.8128403,-2.1285 -3.81301,2.1281 0.8182,-4.3333 -3.17465989,-3.019 4.31844989,-0.5504 z m 65.4850303,16.2121 -0.7044,-1.5198 -0.7043,1.5198 -1.6434,0.2093 1.2082,1.1487 -0.3115,1.6485 1.451,-0.8094 1.4512,0.8094 -0.3115,-1.6492 1.2082,-1.1487 z m 17.3656,-27.244582 h 15.555905 v 0.88817 c 0,0 -4.445,2.444442 -4.445,4.444442 v 20.66667 c 0,3.1111 4.445,5.1111 4.445,5.1111 v 0.8889 H 89.096835 v -0.8889 c 0,0 4.4445,-2 4.4445,-5.1111 v -1.6356 l 3.6733,-1.0736 -0.3516,-1.33 -3.3217,0.7914 v -17.41887 c 0,-2 -4.4445,-4.444442 -4.4445,-4.444442 z"
     fill="#90a4ae"
     id="path20" />
  <text
     xml:space="preserve"
     style="font-size:40px;line-height:1.25;font-family:wtfont;-inkscape-font-specification:wtfont"
     x="25.638269"
     y="18.341225"
     id="text32"><tspan
       sodipodi:role="line"
       id="tspan30"
       x="25.638269"
       y="18.341225" /></text>
  <g
     aria-label="WAR THUNDER"
     id="text36"
     style="font-size:22px;line-height:1.25;font-family:wtfont;-inkscape-font-specification:wtfont;fill:#90a4ae;fill-opacity:1"
     transform="translate(-0.05776365,-1.025481)">
    <path
       d="m 15.441105,1.0847471 -2.09,13.1999999 h -2.222 l -2.1999999,-8.8219999 -2.2,8.8219999 h -2.222 l -2.09,-13.1999999 h 2.222 l 1.21,7.634 1.914,-7.634 h 2.3319999 l 1.914,7.634 1.21,-7.634 z"
       id="path209" />
    <path
       d="m 24.706199,14.284747 h -2.266 l -0.55,-2.2 h -3.124 l -0.55,2.2 h -2.266 l 3.19,-13.1999999 h 2.376 z m -3.366,-4.3999999 -1.012,-4.07 -1.012,4.07 z"
       id="path211" />
    <path
       d="m 35.750199,6.5847471 -2.288,2.2 2.288,5.4999999 h -2.398 l -2.332,-5.4999999 h -1.87 v 5.4999999 h -2.2 V 1.0847471 h 6.6 l 2.2,2.2 z m -2.2,-0.902 v -1.496 l -0.902,-0.902 h -3.498 v 3.3 h 3.498 z"
       id="path213" />
    <path
       d="m 51.605668,3.2847471 h -3.3 V 14.284747 h -2.2 V 3.2847471 h -3.3 v -2.2 h 8.8 z"
       id="path215" />
    <path
       d="m 62.605668,14.284747 h -2.2 V 8.7847471 h -4.4 v 5.4999999 h -2.2 V 1.0847471 h 2.2 v 5.5 h 4.4 v -5.5 h 2.2 z"
       id="path217" />
    <path
       d="m 73.605668,12.084747 -2.2,2.2 h -4.4 l -2.2,-2.2 V 1.0847471 h 2.2 V 11.182747 l 0.902,0.902 h 2.596 l 0.902,-0.902 V 1.0847471 h 2.2 z"
       id="path219" />
    <path
       d="m 84.605668,14.284747 h -2.2 l -4.4,-8.4039999 v 8.4039999 h -2.2 V 1.0847471 l 2.2,0.022 4.4,8.404 v -8.426 h 2.2 z"
       id="path221" />
    <path
       d="m 95.605668,12.084747 -2.2,2.2 h -6.6 V 1.0847471 h 6.6 l 2.2,2.2 z m -2.2,-0.902 V 4.1867471 l -0.902,-0.902 h -3.498 v 8.7999999 h 3.498 z"
       id="path223" />
    <path
       d="M 106.60567,14.284747 H 97.805668 V 1.0847471 h 8.800002 v 2.2 h -6.6 v 3.3 h 3.3 v 2.2 h -3.3 v 3.2999999 h 6.6 z"
       id="path225" />
    <path
       d="m 117.60567,6.5847471 -2.288,2.2 2.288,5.4999999 h -2.398 l -2.332,-5.4999999 h -1.87 v 5.4999999 h -2.2 V 1.0847471 h 6.6 l 2.2,2.2 z m -2.2,-0.902 v -1.496 l -0.902,-0.902 h -3.498 v 3.3 h 3.498 z"
       id="path227" />
  </g>
</svg>
